<svg xmlns="http://www.w3.org/2000/svg" viewBox="0 0 506.79 67.44"><defs><style>.cls-1{fill:#8f3037;}</style></defs><g id="Layer_2" data-name="Layer 2"><g id="Layer_1-2" data-name="Layer 1"><path d="M42.11,34.46a16.39,16.39,0,0,1,4.08,5.38,17.53,17.53,0,0,1,1.42,7.45A18.14,18.14,0,0,1,41,61.8q-6.63,5.64-17.2,5.64a25.8,25.8,0,0,1-10.26-2A28.32,28.32,0,0,1,6.8,61.74L5.51,66H.65L0,43.73H4.47a24.63,24.63,0,0,0,2.2,5.91,28.2,28.2,0,0,0,4.08,6.11,22.66,22.66,0,0,0,6.06,4.82,16.13,16.13,0,0,0,7.94,2q6.21,0,9.58-2.84t3.37-8.11a9.65,9.65,0,0,0-1.07-4.7,10.38,10.38,0,0,0-3.14-3.47,24.67,24.67,0,0,0-5.25-2.68q-3.1-1.2-6.93-2.37a63.36,63.36,0,0,1-6.77-2.49,26.94,26.94,0,0,1-6.38-3.73A18.27,18.27,0,0,1,3.5,26.56a15.88,15.88,0,0,1-1.82-7.77A17.48,17.48,0,0,1,7.51,5.51Q13.35.06,23.13.06A31.7,31.7,0,0,1,30.8,1a26,26,0,0,1,6.38,2.33L38.67,0h4.67l1,20.54H39.84A20.7,20.7,0,0,0,34,9.31,15.26,15.26,0,0,0,23,5q-5.31,0-8.36,2.67a8.31,8.31,0,0,0-3,6.46,10.49,10.49,0,0,0,1,4.86,8.94,8.94,0,0,0,3,3.31,25.86,25.86,0,0,0,4.89,2.43q3,1.13,7.29,2.55a63.32,63.32,0,0,1,8.07,3.18A26.84,26.84,0,0,1,42.11,34.46Z"/><path d="M125.74,64.59,104.89,66l-1-.9V57h-.39c-1,1.08-2.2,2.23-3.49,3.46a23.92,23.92,0,0,1-4.46,3.34,28.7,28.7,0,0,1-5.63,2.66,25.63,25.63,0,0,1-7.7.9q-8.46,0-12.9-5.53T64.91,45.76V15.21A7.93,7.93,0,0,0,64,11.3a7.71,7.71,0,0,0-5.51-3.88,28.18,28.18,0,0,0-3.71-.49V2.66L76.12,1.1l1,.91V46.38q0,6.94,3.11,10.43a9.61,9.61,0,0,0,7.45,3.5A17.08,17.08,0,0,0,94,59.21a18,18,0,0,0,4.66-2.59,21.81,21.81,0,0,0,3.08-2.87,17.47,17.47,0,0,0,2-2.82V14.76a7.66,7.66,0,0,0-.91-3.78,8.45,8.45,0,0,0-2.52-2.82,7.27,7.27,0,0,0-3.47-.94c-1.53-.1-3.25-.2-5.15-.29V2.66L115,1.1,116,2V52.68a7.26,7.26,0,0,0,.91,3.75,8,8,0,0,0,2.52,2.65,7.13,7.13,0,0,0,2.79.94,33.53,33.53,0,0,0,3.56.29Z"/><path d="M182.49,10.11A10.73,10.73,0,0,1,180.87,16a5.48,5.48,0,0,1-5,2.56,7.6,7.6,0,0,1-5.54-1.88,5.72,5.72,0,0,1-1.91-4.15,13.71,13.71,0,0,1,.23-2.59c.15-.78.29-1.55.42-2.33A14.4,14.4,0,0,0,162,10,21.09,21.09,0,0,0,155,17V54.22a6.92,6.92,0,0,0,.88,3.7,5.24,5.24,0,0,0,2.75,2.13,17.07,17.07,0,0,0,4.18,1q2.55.31,4.44.45v4.27H133.58V61.48l3.08-.26a11.91,11.91,0,0,0,2.75-.52,4.62,4.62,0,0,0,2.69-2,7.29,7.29,0,0,0,.87-3.78V15.47a8.9,8.9,0,0,0-.94-3.94,7.82,7.82,0,0,0-2.62-3.11,8.63,8.63,0,0,0-2.91-1.13,26.31,26.31,0,0,0-3.63-.49V2.53L154.12,1.1,155,2v9h.33a29,29,0,0,1,8.94-8,18.93,18.93,0,0,1,9-2.72A8.82,8.82,0,0,1,179.93,3,9.83,9.83,0,0,1,182.49,10.11Z"/><path d="M258.48,65.75H227.26V61.48c1-.09,2.08-.17,3.27-.26a12.38,12.38,0,0,0,2.94-.52,4.66,4.66,0,0,0,2.69-2,7.21,7.21,0,0,0,.88-3.79V22q0-6.81-3.22-10.5A10,10,0,0,0,226,7.84a17.65,17.65,0,0,0-6.3,1.07,22.2,22.2,0,0,0-5.07,2.62,14.43,14.43,0,0,0-3.4,3.21,25.86,25.86,0,0,0-1.85,2.75V54.22a6.69,6.69,0,0,0,.9,3.63,5.8,5.8,0,0,0,2.72,2.2A12.62,12.62,0,0,0,216,61a28.6,28.6,0,0,0,3.27.45v4.27H187.93V61.48l3.08-.26a11.81,11.81,0,0,0,2.75-.52,4.62,4.62,0,0,0,2.69-2,7.29,7.29,0,0,0,.88-3.78V15.47a8.86,8.86,0,0,0-.94-4,8,8,0,0,0-2.63-3,8.63,8.63,0,0,0-2.91-1.13,26.1,26.1,0,0,0-3.63-.49V2.53L208.47,1.1l.91.91v9h.32c1-1,2.33-2.27,3.89-3.72A32.81,32.81,0,0,1,218,3.76a23.1,23.1,0,0,1,5.7-2.59,24.88,24.88,0,0,1,7.45-1q9.2,0,13.64,5.73t4.44,15.26V54.35A7.54,7.54,0,0,0,250,58a5.17,5.17,0,0,0,2.66,2.17,16.08,16.08,0,0,0,2.69.91,21.56,21.56,0,0,0,3.14.39Z"/><path d="M442.46,65.75H411.37V61.48l3-.26a11.89,11.89,0,0,0,2.69-.52,4.67,4.67,0,0,0,2.68-2,7.21,7.21,0,0,0,.88-3.79v-33q0-6.73-3.08-10.4a9.62,9.62,0,0,0-7.67-3.66,17.87,17.87,0,0,0-6,1,18.92,18.92,0,0,0-5.12,2.72,16.13,16.13,0,0,0-3.14,3.08,29.74,29.74,0,0,0-1.92,2.75V54.22a7.85,7.85,0,0,0,.78,3.73,5,5,0,0,0,2.66,2.23,21.91,21.91,0,0,0,2.69.88,19.82,19.82,0,0,0,3.14.42v4.27H372.56V61.48l2.88-.26A11.49,11.49,0,0,0,378,60.7a4.66,4.66,0,0,0,2.69-2,7.31,7.31,0,0,0,.88-3.79v-33q0-6.73-3.09-10.4a9.66,9.66,0,0,0-7.69-3.66,17.5,17.5,0,0,0-6,1,19.53,19.53,0,0,0-5.13,2.76,15.79,15.79,0,0,0-3.18,3.2c-.87,1.19-1.51,2.09-1.95,2.69v36.6a7,7,0,0,0,.91,3.7,5.63,5.63,0,0,0,2.72,2.26A13.16,13.16,0,0,0,361,61a23,23,0,0,0,3.18.45v4.27h-31V61.48l3.08-.26a12,12,0,0,0,2.75-.52,4.65,4.65,0,0,0,2.69-2,7.29,7.29,0,0,0,.87-3.78V15.21a7.35,7.35,0,0,0-.94-3.72,8.44,8.44,0,0,0-2.62-2.81,10.89,10.89,0,0,0-3.05-1.26,19.32,19.32,0,0,0-3.75-.62V2.53L353.52,1.1l.9.91v9.13h.46q1.61-1.62,3.95-3.82a34,34,0,0,1,4.34-3.56,20.46,20.46,0,0,1,5.67-2.59,25.06,25.06,0,0,1,7.35-1,17.35,17.35,0,0,1,10.69,3.34,18.94,18.94,0,0,1,6.41,8.06q2.32-2.26,4.11-4a32.85,32.85,0,0,1,4.69-3.66,21,21,0,0,1,5.79-2.72,24.83,24.83,0,0,1,7.4-1q8.09,0,12.81,5.31t4.72,16.33V54.22a7.85,7.85,0,0,0,.78,3.73,5,5,0,0,0,2.65,2.23,17.94,17.94,0,0,0,2.95.88,27.87,27.87,0,0,0,3.27.42Z"/><path d="M506.79,50.73A32.73,32.73,0,0,1,496,62.9a27.07,27.07,0,0,1-15.49,4.54,31.49,31.49,0,0,1-13.5-2.72,26.53,26.53,0,0,1-9.56-7.39,31.21,31.21,0,0,1-5.6-10.88A46,46,0,0,1,450,33.3a38.64,38.64,0,0,1,2-12.21,34.26,34.26,0,0,1,5.79-10.79A28.13,28.13,0,0,1,467,2.88,26.41,26.41,0,0,1,479.26.06a29.52,29.52,0,0,1,12,2.21,21.27,21.27,0,0,1,8.1,6,24.33,24.33,0,0,1,4.44,8.55,37.64,37.64,0,0,1,1.45,10.69v4.28h-42.3a50.26,50.26,0,0,0,1.2,11.43,27.35,27.35,0,0,0,3.79,9,18,18,0,0,0,6.61,5.94,20.38,20.38,0,0,0,9.71,2.18,17.86,17.86,0,0,0,9.95-2.71q4.17-2.7,8.06-9.73ZM492.47,26.37a52.73,52.73,0,0,0-.61-7.75,23.55,23.55,0,0,0-2-6.91,13.11,13.11,0,0,0-4.08-4.85A11.1,11.1,0,0,0,479.13,5a13.88,13.88,0,0,0-11.31,5.65q-4.5,5.66-4.89,15.73Z"/><path class="cls-1" d="M304.22,30.38l-.39,22.41a23.91,23.91,0,0,1-5.9,5.29,14.69,14.69,0,0,1-8.09,2.23,10.32,10.32,0,0,1-7.17-2.53c-1.87-1.69-2.82-4.33-2.82-7.91a13.23,13.23,0,0,1,1.89-7.18,17.75,17.75,0,0,1,5.11-5.23,39.26,39.26,0,0,1,7.71-3.9Q298.71,32,304.22,30.38Z"/><path class="cls-1" d="M300.35,8.19c-11.61-6.42-15.64,5.66-16.48,9a3.88,3.88,0,0,0,.06-.77,19.84,19.84,0,0,0-.61-4.66,17.48,17.48,0,0,1-.61-3.81,9.81,9.81,0,0,1,3.6-2.11,14.74,14.74,0,0,1,5.53-1,10.92,10.92,0,0,1,6.7,1.79A12.83,12.83,0,0,1,300.35,8.19Z"/></g></g></svg>